<mxfile host="drawio-plugin" modified="2023-02-26T00:25:01.081Z" agent="5.0 (Macintosh; Intel Mac OS X 10_15_7) AppleWebKit/537.36 (KHTML, like Gecko) Chrome/104.0.5112.102 Safari/537.36" version="20.5.3" etag="Lh4jr4vNCIq_HmXdbUZT" type="embed"><diagram id="fLWwo4V1Y34hroZsvtOj" name="Page-1"><mxGraphModel dx="1186" dy="859" grid="1" gridSize="10" guides="1" tooltips="1" connect="1" arrows="1" fold="1" page="1" pageScale="1" pageWidth="850" pageHeight="1100" background="#114B5F" math="0" shadow="0"><root><mxCell id="0"/><mxCell id="1" parent="0"/><mxCell id="3" value="TreeGenerator" style="swimlane;fontStyle=1;align=center;verticalAlign=top;childLayout=stackLayout;horizontal=1;startSize=26;horizontalStack=0;resizeParent=1;resizeParentMax=0;resizeLast=0;collapsible=1;marginBottom=0;fillColor=#F45B69;strokeColor=#028090;fontColor=#E4FDE1;" vertex="1" parent="1"><mxGeometry x="425" y="176" width="160" height="86" as="geometry"/></mxCell><mxCell id="4" value="ITreeNode rootNode;" style="text;strokeColor=none;fillColor=none;align=left;verticalAlign=top;spacingLeft=4;spacingRight=4;overflow=hidden;rotatable=0;points=[[0,0.5],[1,0.5]];portConstraint=eastwest;fontColor=#E4FDE1;" vertex="1" parent="3"><mxGeometry y="26" width="160" height="26" as="geometry"/></mxCell><mxCell id="5" value="" style="line;strokeWidth=1;fillColor=none;align=left;verticalAlign=middle;spacingTop=-1;spacingLeft=3;spacingRight=3;rotatable=0;labelPosition=right;points=[];portConstraint=eastwest;strokeColor=#028090;labelBackgroundColor=#114B5F;fontColor=#E4FDE1;" vertex="1" parent="3"><mxGeometry y="52" width="160" height="8" as="geometry"/></mxCell><mxCell id="6" value="+ method(type): type" style="text;strokeColor=none;fillColor=none;align=left;verticalAlign=top;spacingLeft=4;spacingRight=4;overflow=hidden;rotatable=0;points=[[0,0.5],[1,0.5]];portConstraint=eastwest;fontColor=#E4FDE1;" vertex="1" parent="3"><mxGeometry y="60" width="160" height="26" as="geometry"/></mxCell><mxCell id="7" value="Dataset" style="swimlane;fontStyle=1;align=center;verticalAlign=top;childLayout=stackLayout;horizontal=1;startSize=26;horizontalStack=0;resizeParent=1;resizeParentMax=0;resizeLast=0;collapsible=1;marginBottom=0;fillColor=#F45B69;strokeColor=#028090;fontColor=#E4FDE1;" vertex="1" parent="1"><mxGeometry x="25" y="130" width="270" height="346" as="geometry"><mxRectangle x="25" y="130" width="80" height="30" as="alternateBounds"/></mxGeometry></mxCell><mxCell id="8" value="List&lt;Row&gt; objectsList;" style="text;strokeColor=none;fillColor=none;align=left;verticalAlign=top;spacingLeft=4;spacingRight=4;overflow=hidden;rotatable=0;points=[[0,0.5],[1,0.5]];portConstraint=eastwest;fontColor=#E4FDE1;" vertex="1" parent="7"><mxGeometry y="26" width="270" height="26" as="geometry"/></mxCell><mxCell id="26" value="List&lt;String&gt; attributeList;" style="text;strokeColor=none;fillColor=none;align=left;verticalAlign=top;spacingLeft=4;spacingRight=4;overflow=hidden;rotatable=0;points=[[0,0.5],[1,0.5]];portConstraint=eastwest;fontColor=#E4FDE1;" vertex="1" parent="7"><mxGeometry y="52" width="270" height="26" as="geometry"/></mxCell><mxCell id="10" value="AttributeSelection selectionType;" style="text;strokeColor=none;fillColor=none;align=left;verticalAlign=top;spacingLeft=4;spacingRight=4;overflow=hidden;rotatable=0;points=[[0,0.5],[1,0.5]];portConstraint=eastwest;fontColor=#E4FDE1;" vertex="1" parent="7"><mxGeometry y="78" width="270" height="26" as="geometry"/></mxCell><mxCell id="9" value="" style="line;strokeWidth=1;fillColor=none;align=left;verticalAlign=middle;spacingTop=-1;spacingLeft=3;spacingRight=3;rotatable=0;labelPosition=right;points=[];portConstraint=eastwest;strokeColor=#028090;labelBackgroundColor=#114B5F;fontColor=#E4FDE1;" vertex="1" parent="7"><mxGeometry y="104" width="270" height="8" as="geometry"/></mxCell><mxCell id="27" value="Dataset();" style="text;align=left;verticalAlign=top;spacingLeft=4;spacingRight=4;overflow=hidden;rotatable=0;points=[[0,0.5],[1,0.5]];portConstraint=eastwest;fontColor=#E4FDE1;" vertex="1" parent="7"><mxGeometry y="112" width="270" height="26" as="geometry"/></mxCell><mxCell id="28" value="String getAttributeToSplitOn();" style="text;align=left;verticalAlign=top;spacingLeft=4;spacingRight=4;overflow=hidden;rotatable=0;points=[[0,0.5],[1,0.5]];portConstraint=eastwest;fontColor=#E4FDE1;" vertex="1" parent="7"><mxGeometry y="138" width="270" height="26" as="geometry"/></mxCell><mxCell id="29" value="List&lt;String&gt; getAttributeList();" style="text;align=left;verticalAlign=top;spacingLeft=4;spacingRight=4;overflow=hidden;rotatable=0;points=[[0,0.5],[1,0.5]];portConstraint=eastwest;fontColor=#E4FDE1;" vertex="1" parent="7"><mxGeometry y="164" width="270" height="26" as="geometry"/></mxCell><mxCell id="30" value="List&lt;Row&gt; getDataObjects();" style="text;align=left;verticalAlign=top;spacingLeft=4;spacingRight=4;overflow=hidden;rotatable=0;points=[[0,0.5],[1,0.5]];portConstraint=eastwest;fontColor=#E4FDE1;" vertex="1" parent="7"><mxGeometry y="190" width="270" height="26" as="geometry"/></mxCell><mxCell id="31" value="AttributeSelection getAttributeSelection();" style="text;align=left;verticalAlign=top;spacingLeft=4;spacingRight=4;overflow=hidden;rotatable=0;points=[[0,0.5],[1,0.5]];portConstraint=eastwest;fontColor=#E4FDE1;" vertex="1" parent="7"><mxGeometry y="216" width="270" height="26" as="geometry"/></mxCell><mxCell id="32" value="boolean isHomogeneous();" style="text;align=left;verticalAlign=top;spacingLeft=4;spacingRight=4;overflow=hidden;rotatable=0;points=[[0,0.5],[1,0.5]];portConstraint=eastwest;fontColor=#E4FDE1;" vertex="1" parent="7"><mxGeometry y="242" width="270" height="26" as="geometry"/></mxCell><mxCell id="33" value="Dataset generateSubset();" style="text;align=left;verticalAlign=top;spacingLeft=4;spacingRight=4;overflow=hidden;rotatable=0;points=[[0,0.5],[1,0.5]];portConstraint=eastwest;fontColor=#E4FDE1;" vertex="1" parent="7"><mxGeometry y="268" width="270" height="26" as="geometry"/></mxCell><mxCell id="34" value="int size();" style="text;align=left;verticalAlign=top;spacingLeft=4;spacingRight=4;overflow=hidden;rotatable=0;points=[[0,0.5],[1,0.5]];portConstraint=eastwest;fontColor=#E4FDE1;" vertex="1" parent="7"><mxGeometry y="294" width="270" height="26" as="geometry"/></mxCell><mxCell id="35" value="String maxValue();" style="text;align=left;verticalAlign=top;spacingLeft=4;spacingRight=4;overflow=hidden;rotatable=0;points=[[0,0.5],[1,0.5]];portConstraint=eastwest;fontColor=#E4FDE1;" vertex="1" parent="7"><mxGeometry y="320" width="270" height="26" as="geometry"/></mxCell><mxCell id="11" value="IDataset" style="ellipse;whiteSpace=wrap;html=1;fillColor=#F45B69;strokeColor=#028090;fontColor=#E4FDE1;" vertex="1" parent="1"><mxGeometry x="90" y="20" width="140" height="70" as="geometry"/></mxCell><mxCell id="12" value="ITreeGenerator" style="ellipse;whiteSpace=wrap;html=1;fillColor=#F45B69;strokeColor=#028090;fontColor=#E4FDE1;" vertex="1" parent="1"><mxGeometry x="435" y="20" width="140" height="70" as="geometry"/></mxCell><mxCell id="13" value="ITreeNode" style="ellipse;whiteSpace=wrap;html=1;fillColor=#F45B69;strokeColor=#028090;fontColor=#E4FDE1;" vertex="1" parent="1"><mxGeometry x="380" y="290" width="140" height="70" as="geometry"/></mxCell><mxCell id="14" value="AttributeNode" style="swimlane;fontStyle=1;align=center;verticalAlign=top;childLayout=stackLayout;horizontal=1;startSize=26;horizontalStack=0;resizeParent=1;resizeParentMax=0;resizeLast=0;collapsible=1;marginBottom=0;fillColor=#F45B69;strokeColor=#028090;fontColor=#E4FDE1;" vertex="1" parent="1"><mxGeometry x="220" y="570" width="160" height="86" as="geometry"/></mxCell><mxCell id="15" value="+ field: type" style="text;strokeColor=none;fillColor=none;align=left;verticalAlign=top;spacingLeft=4;spacingRight=4;overflow=hidden;rotatable=0;points=[[0,0.5],[1,0.5]];portConstraint=eastwest;fontColor=#E4FDE1;" vertex="1" parent="14"><mxGeometry y="26" width="160" height="26" as="geometry"/></mxCell><mxCell id="16" value="" style="line;strokeWidth=1;fillColor=none;align=left;verticalAlign=middle;spacingTop=-1;spacingLeft=3;spacingRight=3;rotatable=0;labelPosition=right;points=[];portConstraint=eastwest;strokeColor=#028090;labelBackgroundColor=#114B5F;fontColor=#E4FDE1;" vertex="1" parent="14"><mxGeometry y="52" width="160" height="8" as="geometry"/></mxCell><mxCell id="17" value="+ method(type): type" style="text;strokeColor=none;fillColor=none;align=left;verticalAlign=top;spacingLeft=4;spacingRight=4;overflow=hidden;rotatable=0;points=[[0,0.5],[1,0.5]];portConstraint=eastwest;fontColor=#E4FDE1;" vertex="1" parent="14"><mxGeometry y="60" width="160" height="26" as="geometry"/></mxCell><mxCell id="18" value="DecisionLeaf" style="swimlane;fontStyle=1;align=center;verticalAlign=top;childLayout=stackLayout;horizontal=1;startSize=26;horizontalStack=0;resizeParent=1;resizeParentMax=0;resizeLast=0;collapsible=1;marginBottom=0;fillColor=#F45B69;strokeColor=#028090;fontColor=#E4FDE1;" vertex="1" parent="1"><mxGeometry x="520" y="470" width="160" height="86" as="geometry"/></mxCell><mxCell id="19" value="+ field: type" style="text;strokeColor=none;fillColor=none;align=left;verticalAlign=top;spacingLeft=4;spacingRight=4;overflow=hidden;rotatable=0;points=[[0,0.5],[1,0.5]];portConstraint=eastwest;fontColor=#E4FDE1;" vertex="1" parent="18"><mxGeometry y="26" width="160" height="26" as="geometry"/></mxCell><mxCell id="20" value="" style="line;strokeWidth=1;fillColor=none;align=left;verticalAlign=middle;spacingTop=-1;spacingLeft=3;spacingRight=3;rotatable=0;labelPosition=right;points=[];portConstraint=eastwest;strokeColor=#028090;labelBackgroundColor=#114B5F;fontColor=#E4FDE1;" vertex="1" parent="18"><mxGeometry y="52" width="160" height="8" as="geometry"/></mxCell><mxCell id="21" value="+ method(type): type" style="text;strokeColor=none;fillColor=none;align=left;verticalAlign=top;spacingLeft=4;spacingRight=4;overflow=hidden;rotatable=0;points=[[0,0.5],[1,0.5]];portConstraint=eastwest;fontColor=#E4FDE1;" vertex="1" parent="18"><mxGeometry y="60" width="160" height="26" as="geometry"/></mxCell><mxCell id="22" value="" style="endArrow=none;html=1;rounded=0;exitX=0.5;exitY=0;exitDx=0;exitDy=0;entryX=0.5;entryY=1;entryDx=0;entryDy=0;labelBackgroundColor=#114B5F;strokeColor=#028090;fontColor=#E4FDE1;" edge="1" parent="1" source="14" target="13"><mxGeometry width="50" height="50" relative="1" as="geometry"><mxPoint x="350" y="380" as="sourcePoint"/><mxPoint x="400" y="330" as="targetPoint"/></mxGeometry></mxCell><mxCell id="23" value="" style="endArrow=none;html=1;rounded=0;exitX=0.5;exitY=1;exitDx=0;exitDy=0;entryX=0.5;entryY=0;entryDx=0;entryDy=0;labelBackgroundColor=#114B5F;strokeColor=#028090;fontColor=#E4FDE1;" edge="1" parent="1" source="13" target="18"><mxGeometry width="50" height="50" relative="1" as="geometry"><mxPoint x="350" y="380" as="sourcePoint"/><mxPoint x="400" y="330" as="targetPoint"/></mxGeometry></mxCell><mxCell id="24" value="" style="endArrow=none;html=1;rounded=0;exitX=0.5;exitY=0;exitDx=0;exitDy=0;entryX=0.5;entryY=1;entryDx=0;entryDy=0;labelBackgroundColor=#114B5F;strokeColor=#028090;fontColor=#E4FDE1;" edge="1" parent="1" source="7" target="11"><mxGeometry width="50" height="50" relative="1" as="geometry"><mxPoint x="350" y="360" as="sourcePoint"/><mxPoint x="400" y="310" as="targetPoint"/></mxGeometry></mxCell><mxCell id="25" value="" style="endArrow=none;html=1;rounded=0;entryX=0.5;entryY=1;entryDx=0;entryDy=0;exitX=0.5;exitY=0;exitDx=0;exitDy=0;labelBackgroundColor=#114B5F;strokeColor=#028090;fontColor=#E4FDE1;" edge="1" parent="1" source="3" target="12"><mxGeometry width="50" height="50" relative="1" as="geometry"><mxPoint x="350" y="360" as="sourcePoint"/><mxPoint x="400" y="310" as="targetPoint"/></mxGeometry></mxCell></root></mxGraphModel></diagram></mxfile>